<?xml version="1.0" standalone="no"?>
<!DOCTYPE svg PUBLIC "-//W3C//DTD SVG 20010904//EN"
 "http://www.w3.org/TR/2001/REC-SVG-20010904/DTD/svg10.dtd">
<svg version="1.0" xmlns="http://www.w3.org/2000/svg"
 width="2000.000000pt" height="2000.000000pt" viewBox="0 0 2000.000000 2000.000000"
 preserveAspectRatio="xMidYMid meet">
<metadata>
Created by potrace 1.11, written by Peter Selinger 2001-2013
</metadata>
<g transform="translate(0.000000,2000.000000) scale(0.100000,-0.100000)"
fill="#000000" stroke="none">
<path d="M11351 16099 c-156 -33 -298 -101 -406 -193 -28 -24 -154 -174 -280
-332 -274 -344 -5439 -6810 -5567 -6969 -99 -123 -184 -281 -215 -400 -25 -97
-25 -333 0 -425 85 -317 408 -606 741 -665 78 -13 373 -15 2557 -15 l2468 0 4
-1402 c3 -1554 -1 -1450 68 -1630 82 -211 271 -404 479 -486 120 -47 177 -57
340 -56 126 1 170 5 235 23 289 78 532 298 626 567 50 144 49 108 49 1594 l0
1389 528 3 c505 4 530 5 607 26 319 88 556 342 604 649 42 274 -41 543 -228
731 -81 83 -138 122 -244 172 -157 72 -160 73 -746 77 l-523 4 3 3287 c2 3097
1 3292 -15 3366 -74 338 -313 594 -631 677 -121 31 -330 35 -454 8z m-704
-7336 c-2 -2 -761 -2 -1686 -1 l-1682 3 1256 1605 c691 883 1449 1850 1683
2150 l427 545 3 -2149 c1 -1182 1 -2151 -1 -2153z"/>
</g>
</svg>
